<?xml version="1.0" standalone="no"?><!DOCTYPE svg PUBLIC "-//W3C//DTD SVG 1.1//EN" "http://www.w3.org/Graphics/SVG/1.1/DTD/svg11.dtd"><svg t="1585728004444" class="icon" viewBox="0 0 1024 1024" version="1.1" xmlns="http://www.w3.org/2000/svg" p-id="7044" xmlns:xlink="http://www.w3.org/1999/xlink" width="64" height="64"><defs><style type="text/css"></style></defs><path d="M512 988.689655C249.149793 988.689655 35.310345 774.850207 35.310345 512 35.310345 249.149793 249.149793 35.310345 512 35.310345 774.850207 35.310345 988.689655 249.149793 988.689655 512 988.689655 774.850207 774.850207 988.689655 512 988.689655M512 0C229.234759 0 0 229.234759 0 512 0 794.765241 229.234759 1024 512 1024 794.765241 1024 1024 794.765241 1024 512 1024 229.234759 794.765241 0 512 0" p-id="7045" fill="#8a8a8a"></path><path d="M340.764248 266.134069 344.542455 265.127724 340.764248 266.116414 340.764248 266.134069Z" p-id="7046" fill="#8a8a8a"></path><path d="M344.065766 319.616883C359.072662 375.636745 416.663834 408.881434 472.666041 393.874538 528.703559 378.867641 561.948248 321.294124 546.941352 265.256607 541.962593 246.683366 532.022731 230.934952 519.293352 218.293848 493.622731 192.817434 455.770041 180.953159 418.323421 190.981297 380.859145 201.02709 354.023283 230.21109 344.542455 265.115366 339.828524 282.43509 339.087007 301.043641 344.065766 319.616883" p-id="7047" fill="#8a8a8a"></path><path d="M558.982179 458.78731C661.858869 405.53931 717.543283 286.260966 686.346593 169.772138L605.185766 191.52331C629.214455 281.176276 576.001766 373.300966 486.366455 397.329655 396.731145 421.34069 304.5888 368.145655 280.56011 278.510345L283.455559 277.733517 199.416938 300.243862C230.631283 416.73269 338.504386 492.173241 454.198731 486.87669 317.741903 550.046897 242.354317 704 282.60811 854.227862L384.054731 827.038897C354.023283 714.981517 420.530317 599.799172 532.570041 569.785379 644.627421 539.753931 759.809766 606.260966 789.823559 718.318345L891.270179 691.129379C851.034041 540.919172 708.768662 445.263448 558.982179 458.78731" p-id="7048" fill="#8a8a8a"></path></svg>