<?xml version="1.0" standalone="no"?><!DOCTYPE svg PUBLIC "-//W3C//DTD SVG 1.1//EN" "http://www.w3.org/Graphics/SVG/1.1/DTD/svg11.dtd"><svg t="1585728471214" class="icon" viewBox="0 0 1024 1024" version="1.1" xmlns="http://www.w3.org/2000/svg" p-id="10679" xmlns:xlink="http://www.w3.org/1999/xlink" width="64" height="64"><defs><style type="text/css"></style></defs><path d="M320 364.112l-144-63.36v54h-64V237.536L560 48l448 189.536v554.416L560 981.488 112 791.952v-101.2h64v58.784l352 148.928V455.632l-144-63.36v170.48a32 32 0 0 1-64 0v-198.64zM777.52 209.52L452.56 352.512l107.68 47.376 333.632-141.136L777.52 209.52z m-81.024-34.272L560 117.488 232.928 255.872l140.16 61.68 323.408-142.304zM592 898.448l352-148.912V307.04L592 455.968V898.48zM41.6 482.768c-14.144 0-25.6-14.336-25.6-32 0-17.68 11.456-32 25.6-32h140.8c14.144 0 25.6 14.32 25.6 32 0 17.664-11.456 32-25.6 32H41.6z m0 148c-14.144 0-25.6-14.336-25.6-32 0-17.68 11.456-32 25.6-32h140.8c14.144 0 25.6 14.32 25.6 32 0 17.664-11.456 32-25.6 32H41.6z" p-id="10680"></path></svg>