<?xml version="1.0" standalone="no"?><!DOCTYPE svg PUBLIC "-//W3C//DTD SVG 1.1//EN" "http://www.w3.org/Graphics/SVG/1.1/DTD/svg11.dtd"><svg t="1585727973685" class="icon" viewBox="0 0 1243 1024" version="1.1" xmlns="http://www.w3.org/2000/svg" p-id="6050" xmlns:xlink="http://www.w3.org/1999/xlink" width="77.6875" height="64"><defs><style type="text/css"></style></defs><path d="M683.52 239.908571v275.017143c0 25.014857-10.825143 48.566857-29.257143 66.194286a100.205714 100.205714 0 0 1-69.266286 27.940571H92.452571v153.014858c0 14.701714 6.144 27.940571 16.896 36.790857a49.005714 49.005714 0 0 0 38.473143 14.701714h10.825143c19.968-70.582857 87.771429-122.148571 167.716572-122.148571 78.555429 0 146.285714 50.102857 167.789714 122.148571h173.933714c20.041143-70.582857 87.771429-122.148571 167.789714-122.148571 78.482286 0 146.285714 50.102857 167.789715 122.148571h87.771428c15.36 0 29.257143-5.851429 38.473143-14.701714a51.638857 51.638857 0 0 0 16.896-36.790857V503.222857a100.205714 100.205714 0 0 0-30.72-72.045714l-169.398857-160.329143a109.860571 109.860571 0 0 0-75.337143-29.476571H683.446857v-1.462858z m500.297143 127.926858c36.864 35.328 58.441143 83.821714 58.441143 135.314285v258.925715c0 77.970286-66.194286 142.701714-149.284572 142.701714h-127.780571a45.348571 45.348571 0 0 1-46.153143-44.105143c0-20.626286-9.289143-39.716571-23.113143-54.491429a80.969143 80.969143 0 0 0-56.978286-22.016c-44.617143 0-81.554286 35.254857-81.554285 76.507429 0 25.014857-21.577143 44.105143-46.153143 44.105143H454.144a45.348571 45.348571 0 0 1-46.153143-44.105143c0-20.626286-9.216-39.716571-23.113143-54.491429a80.969143 80.969143 0 0 0-56.978285-22.016c-44.617143 0-81.554286 35.254857-81.554286 76.507429 0 25.014857-21.577143 44.105143-46.153143 44.105143h-50.834286c-81.554286 0-149.284571-63.268571-149.284571-142.628572V563.419429c0-11.776 4.608-23.552 13.897143-30.866286A45.348571 45.348571 0 0 1 46.153143 519.314286h538.770286c3.072 0 4.608-1.462857 4.608-4.388572V195.657143c0-11.776 4.608-23.552 13.897142-30.866286a45.348571 45.348571 0 0 1 32.256-13.238857h237.056c52.370286 0 103.131429 20.553143 141.604572 55.881143l169.325714 160.329143z" p-id="6051" fill="#FF5D00"></path><path d="M840.484571 781.165714c-44.617143 0-81.554286 35.328-81.554285 76.507429 0 20.626286 9.216 39.716571 23.113143 54.491428 15.36 14.628571 35.401143 22.016 56.905142 22.016 44.617143 0 81.627429-35.254857 81.627429-76.507428 0-20.553143-9.289143-39.716571-23.113143-54.418286-15.36-14.628571-36.937143-23.552-56.978286-22.016z m173.933715 76.507429c0 92.672-78.482286 166.253714-173.933715 166.253714-96.987429 0-173.933714-75.044571-173.933714-166.253714 0-92.672 78.555429-166.180571 173.933714-166.180572 95.451429 0 173.933714 73.508571 173.933715 166.180572z m-688.054857-76.434286c-44.617143 0-81.554286 35.254857-81.554286 76.434286 0 20.626286 9.216 39.716571 23.113143 54.491428 15.36 14.628571 35.401143 22.016 56.905143 22.016 44.617143 0 81.627429-35.254857 81.627428-76.507428 0-20.553143-9.289143-39.716571-23.113143-54.418286a75.044571 75.044571 0 0 0-56.978285-22.016z m173.933714 76.434286C500.297143 950.345143 421.814857 1024 326.363429 1024c-96.914286 0-173.933714-75.044571-173.933715-166.253714 0-92.672 78.555429-166.180571 173.933715-166.180572 96.987429 0 173.933714 73.508571 173.933714 166.180572z m360.228571-532.48a47.981714 47.981714 0 0 1 66.194286 0l103.131429 98.523428a43.008 43.008 0 0 1 0 63.268572 47.981714 47.981714 0 0 1-66.194286 0l-103.131429-98.523429a41.472 41.472 0 0 1-13.897143-30.939428c0-13.165714 4.681143-23.552 13.897143-32.329143zM681.984 513.462857c0 48.566857-41.545143 89.746286-93.915429 89.746286H46.226286a45.348571 45.348571 0 0 1-46.153143-44.105143V89.819429C0.073143 41.252571 41.618286 0 93.988571 0H589.531429c50.834286 0 93.915429 39.716571 93.915428 89.746286V513.462857h-1.536z m-589.531429 0H588.068571V89.819429H92.452571V513.462857z" p-id="6052" fill="#FF5D00"></path><path d="M355.620571 133.924571a45.348571 45.348571 0 0 1 46.226286 44.178286v158.866286c0 25.014857-21.577143 44.105143-46.226286 44.105143H198.656a45.348571 45.348571 0 0 1-46.226286-44.105143c0-25.014857 21.577143-44.178286 46.226286-44.178286H307.931429V178.102857c0-25.014857 21.577143-44.178286 47.689142-44.178286z" p-id="6053" fill="#FF5D00"></path></svg>