<?xml version="1.0" standalone="no"?><!DOCTYPE svg PUBLIC "-//W3C//DTD SVG 1.1//EN" "http://www.w3.org/Graphics/SVG/1.1/DTD/svg11.dtd"><svg t="1585728139427" class="icon" viewBox="0 0 1024 1024" version="1.1" xmlns="http://www.w3.org/2000/svg" p-id="8216" xmlns:xlink="http://www.w3.org/1999/xlink" width="64" height="64"><defs><style type="text/css"></style></defs><path d="M800.9 637.7c-9.4 0-18.7 9.4-18.7 18.7v99.7c0 21.8-15.6 37.4-37.4 37.4H211.7c-21.8 0-37.4-15.6-37.4-37.4V263.6c0-21.8 15.6-37.4 37.4-37.4h533c21.8 0 37.4 15.6 37.4 37.4v102.9c0 9.4 9.4 18.7 18.7 18.7s18.7-9.4 18.7-18.7v-106c0-40.5-31.2-71.7-71.7-71.7H208.6c-40.5 0-71.7 31.2-71.7 71.7v498.7c0 40.5 31.2 71.7 71.7 71.7h539.3c40.5 0 71.7-31.2 71.7-71.7v-99.7c0-12.5-6.3-21.8-18.7-21.8z m15.5-227.6H539.1c-37.4 0-68.6 28-71.7 65.5V537.9c0 40.5 31.2 71.7 71.7 71.7h277.5c40.5 0 71.7-31.2 71.7-71.7V481.7c-0.2-37.3-31.3-71.6-71.9-71.6z m34.3 127.8c0 21.8-15.6 37.4-37.4 37.4h-268c-21.8 0-37.4-15.6-37.4-37.4V488c0-21.8 15.6-37.4 37.4-37.4h271.2c21.8 0 37.4 15.6 37.4 37.4v49.9h-3.2zM788.4 488c-12.5 0-21.8 9.4-21.8 21.8s9.4 21.8 21.8 21.8c12.5 0 21.8-9.4 21.8-21.8 3.1-9.3-6.2-21.8-21.8-21.8z" p-id="8217" fill="#FF5D00"></path></svg>