<?xml version="1.0" standalone="no"?><!DOCTYPE svg PUBLIC "-//W3C//DTD SVG 1.1//EN" "http://www.w3.org/Graphics/SVG/1.1/DTD/svg11.dtd"><svg t="1585728174212" class="icon" viewBox="0 0 1024 1024" version="1.1" xmlns="http://www.w3.org/2000/svg" p-id="9831" xmlns:xlink="http://www.w3.org/1999/xlink" width="64" height="64"><defs><style type="text/css"></style></defs><path d="M575.338753 241.693918h-125.14739c-24.883513 0-45.01662-20.133107-45.01662-45.020646 0-24.883513 20.133107-45.01662 45.01662-45.01662h125.14739c24.883513 0 45.01662 20.133107 45.01662 45.01662 0 24.88754-20.133107 45.020646-45.01662 45.020646z m117.173674 156.955685H333.097215c-12.403 0-22.548073-10.066553-22.548073-22.547066 0-12.484539 10.066553-22.551093 22.548073-22.551092h359.415212c12.401994 0 22.551093 10.066553 22.551093 22.551092 0 12.480513-10.149099 22.547066-22.551093 22.547066z m0 122.650886H333.097215c-12.403 0-22.548073-10.066553-22.548073-22.547066 0-12.484539 10.066553-22.551093 22.548073-22.551093h359.415212c12.401994 0 22.551093 10.066553 22.551093 22.551093 0 12.480513-10.149099 22.547066-22.551093 22.547066z m0 158.649886H333.097215c-12.403 0-22.548073-10.066553-22.548073-22.552099 0-12.400987 10.066553-22.546059 22.548073-22.54606h359.415212c12.401994 0 22.551093 10.066553 22.551093 22.54606 0 12.485546-10.149099 22.552099-22.551093 22.552099z m0 0" fill="#FF5D00" p-id="9832"></path><path d="M719.896472 872.343348H304.104535c-59.188313 0-107.42925-48.162418-107.42925-107.433277V281.636995c0-59.19234 48.158391-107.433277 107.42925-107.433277h38.979708c12.403 0 22.548073 10.066553 22.548072 22.551093 0 12.480513-10.066553 22.547066-22.548072 22.547066h-38.979708c-34.387346 0-62.330085 27.946765-62.330085 62.334111v483.355623c0 34.386339 27.942739 62.330085 62.330085 62.330084h415.791937c34.387346 0 62.330085-27.943745 62.330084-62.330084v-483.355623c0-34.387346-27.942739-62.334111-62.330084-62.334111h-36.722787c-12.401994 0-22.551093-10.066553-22.551092-22.547066 0-12.484539 10.066553-22.551093 22.551092-22.551093h36.722787c59.188313 0 107.42925 48.158391 107.42925 107.433277v483.355622c-0.083552 59.188313-48.240937 107.350731-107.42925 107.350731z m0 0" fill="#FF5D00" p-id="9833"></path></svg>