<?xml version="1.0" standalone="no"?><!DOCTYPE svg PUBLIC "-//W3C//DTD SVG 1.1//EN" "http://www.w3.org/Graphics/SVG/1.1/DTD/svg11.dtd"><svg t="1585728156556" class="icon" viewBox="0 0 1024 1024" version="1.1" xmlns="http://www.w3.org/2000/svg" p-id="9022" xmlns:xlink="http://www.w3.org/1999/xlink" width="64" height="64"><defs><style type="text/css"></style></defs><path d="M1000.172315 694.315302c-4.489244-4.349051-10.402931-6.743588-16.653285-6.743588-6.53995 0-12.648065 2.584871-17.20587 7.283894L787.215132 879.701546 686.182065 786.839579c-4.428869-4.075829-10.18292-6.320962-16.202007-6.320962-6.686283 0-13.113669 2.821255-17.639752 7.745405-8.922207 9.724479-8.278547 24.90011 1.433652 33.82948L771.979126 930.74099c4.428869 4.073782 10.181897 6.317892 16.19996 6.318916 0.001023 0 0.001023 0 0.001023 0 6.538927 0 12.644995-2.583848 17.200754-7.2798L1000.704434 728.187761C1009.893724 718.703759 1009.656317 703.509708 1000.172315 694.315302z" p-id="9023" fill="#FF5D00"></path><path d="M561.901527 519.449669l0-1.255597c11.715833-3.348258 20.317745-14.161534 20.317745-26.948769 0-15.434527-12.55699-27.991518-27.992541-27.991518l-77.317946-0.004093 81.889055-96.272647c0.471744-0.5137 0.921999-1.043772 1.350764-1.588171l1.65264-1.943258-0.144286-0.167822c2.574638-3.982708 4.094248-8.584516 4.38896-13.45443 0.453325-7.482415-2.033309-14.688537-7.000438-20.286022-5.315052-5.997598-12.957103-9.43693-20.964474-9.43693-6.848988 0-13.44522 2.508123-18.571984 7.060813l-0.38681 0.343831-80.615039 93.803409-82.709747-98.163717-0.414439-0.36839c-5.128811-4.557806-11.726066-7.066953-18.578124-7.066953-8.007371 0-15.646352 3.439332-20.955264 9.432837-4.969175 5.601578-7.456832 12.803607-7.005554 20.280906 0.291642 4.824889 1.786693 9.386788 4.318352 13.345959l-0.207731 0.234337 90.505293 104.22476-80.767512-0.063445-7.680936 0.080841 0 1.076518c-11.715833 3.347235-20.317745 14.158465-20.317745 26.943652 0 12.771885 8.601912 23.572882 20.317745 26.917046l0 1.171686 96.779184 0.075725 0 25.894763-89.11462-0.069585-7.680936 0.081864 0 1.076518c-11.711739 3.347235-20.311605 14.157441-20.311605 26.937512 0 12.783141 8.599865 23.594371 20.311605 26.941606l0 1.14508 96.795557 0.075725 0 40.165792 0.097214 7.674796 1.071402 0c3.347235 11.703553 14.153348 20.294209 26.930349 20.294209 12.774955 0 23.579021-8.591679 26.926256-20.294209l1.169639 0L467.985554 601.522919l93.906763 0.01228 0-1.239224c11.718903-3.346211 20.321838-14.157441 20.321838-26.942629 0-15.443737-12.559037-28.007891-27.995611-28.007891l-86.23299-0.011256 0-25.894763L561.901527 519.449669z" p-id="9024" fill="#FF5D00"></path><path d="M74.012667 829.436746 74.012667 174.031639c0-21.866007 28.993335-50.862411 50.857295-50.862411l624.898303 0c21.86396 0 50.857295 28.996404 50.857295 50.862411l0 481.016335 51.253314 0L851.878874 169.300894c0-53.697993-43.689035-97.384981-97.391121-97.384981L120.149451 71.915913c-53.701063 0-97.390098 43.686988-97.390098 97.384981l0 664.872736c0 53.699016 43.689035 97.384981 97.390098 97.384981l491.795842 0 0-51.253314L124.868939 880.305297C103.006002 880.305297 74.012667 851.305823 74.012667 829.436746z" p-id="9025" fill="#FF5D00"></path></svg>