<?xml version="1.0" standalone="no"?><!DOCTYPE svg PUBLIC "-//W3C//DTD SVG 1.1//EN" "http://www.w3.org/Graphics/SVG/1.1/DTD/svg11.dtd"><svg t="1585728041812" class="icon" viewBox="0 0 1024 1024" version="1.1" xmlns="http://www.w3.org/2000/svg" p-id="7442" xmlns:xlink="http://www.w3.org/1999/xlink" width="64" height="64"><defs><style type="text/css"></style></defs><path d="M1007.616 516.096c8.192-32.768-8.192-65.536-38.912-77.824 14.336-12.288 22.528-28.672 22.528-49.152 0-32.768-24.576-61.44-57.344-63.488 10.24-14.336 14.336-34.816 10.24-53.248-8.192-32.768-40.96-53.248-73.728-47.104 0-2.048 2.048-4.096 2.048-6.144 4.096-16.384 2.048-34.816-6.144-49.152S843.776 143.36 827.392 139.264c-14.336-4.096-28.672-2.048-43.008 4.096v-6.144c0-16.384-6.144-32.768-18.432-45.056-12.288-12.288-28.672-18.432-45.056-18.432-14.336 0-28.672 4.096-40.96 14.336-4.096-2.048-4.096-4.096-4.096-6.144-4.096-16.384-14.336-30.72-30.72-38.912-14.336-8.192-32.768-10.24-49.152-6.144-14.336 4.096-26.624 12.288-34.816 24.576 0-2.048-2.048-4.096-2.048-4.096-8.192-14.336-22.528-26.624-38.912-30.72-16.384-4.096-34.816-2.048-49.152 6.144-12.288 8.192-22.528 18.432-28.672 32.768C430.08 51.2 411.648 40.96 391.168 40.96c-32.768 0-61.44 24.576-63.488 57.344-2.048-2.048-4.096-2.048-4.096-2.048-14.336-8.192-32.768-10.24-49.152-6.144-32.768 8.192-53.248 40.96-47.104 73.728-16.384-6.144-36.864-6.144-55.296 4.096-28.672 16.384-40.96 53.248-26.624 81.92-18.432-2.048-36.864 4.096-51.2 18.432-24.576 24.576-24.576 61.44-4.096 86.016-2.048 0-4.096 0-6.144 2.048-16.384 4.096-30.72 14.336-38.912 30.72-8.192 14.336-10.24 32.768-6.144 49.152 4.096 14.336 12.288 26.624 24.576 34.816-16.384 8.192-30.72 22.528-34.816 40.96-4.096 16.384-2.048 34.816 6.144 49.152 8.192 12.288 18.432 22.528 32.768 28.672-14.336 12.288-22.528 28.672-22.528 49.152 0 32.768 24.576 61.44 57.344 63.488-2.048 2.048-2.048 4.096-2.048 4.096-8.192 14.336-10.24 32.768-6.144 49.152 4.096 16.384 14.336 30.72 30.72 38.912 10.24 6.144 20.48 8.192 32.768 8.192h10.24c-6.144 16.384-6.144 36.864 4.096 55.296 12.288 20.48 32.768 32.768 55.296 32.768 8.192 0 18.432-2.048 26.624-6.144-2.048 18.432 4.096 36.864 18.432 51.2 12.288 12.288 28.672 18.432 45.056 18.432 14.336 0 28.672-4.096 40.96-14.336 0 2.048 0 4.096 2.048 6.144 4.096 16.384 14.336 30.72 30.72 38.912 10.24 6.144 20.48 8.192 32.768 8.192 6.144 0 12.288 0 16.384-2.048 14.336-4.096 26.624-12.288 34.816-24.576 0 2.048 2.048 4.096 2.048 4.096 8.192 14.336 22.528 26.624 38.912 30.72 6.144 2.048 10.24 2.048 16.384 2.048 10.24 0 22.528-2.048 32.768-8.192 12.288-8.192 22.528-18.432 28.672-32.768 12.288 14.336 28.672 22.528 49.152 22.528 32.768 0 61.44-24.576 63.488-57.344 10.24 8.192 24.576 12.288 36.864 12.288 6.144 0 10.24 0 16.384-2.048 32.768-8.192 53.248-40.96 47.104-71.68 2.048 0 4.096 2.048 6.144 2.048 6.144 2.048 10.24 2.048 16.384 2.048 10.24 0 22.528-2.048 32.768-8.192 28.672-16.384 40.96-53.248 26.624-81.92h6.144c16.384 0 32.768-6.144 45.056-18.432 12.288-12.288 18.432-28.672 18.432-45.056 0-14.336-4.096-28.672-14.336-40.96 2.048 0 4.096 0 6.144-2.048 16.384-4.096 30.72-14.336 38.912-30.72 8.192-14.336 10.24-32.768 6.144-49.152-4.096-14.336-12.288-26.624-24.576-34.816 2.048 0 4.096-2.048 4.096-2.048 16.384-10.24 26.624-24.576 32.768-40.96zM972.8 389.12c0 20.48-12.288 36.864-28.672 43.008-6.144-30.72-14.336-61.44-26.624-88.064 4.096 0 6.144-2.048 10.24-2.048 22.528 0 45.056 22.528 45.056 47.104z m-94.208-147.456c20.48 0 38.912 14.336 45.056 34.816 4.096 18.432-2.048 38.912-18.432 49.152-14.336-28.672-30.72-53.248-49.152-77.824 2.048-2.048 6.144-2.048 10.24-4.096s8.192-2.048 12.288-2.048z m-69.632-86.016c4.096 0 8.192 0 12.288 2.048 12.288 4.096 22.528 10.24 28.672 22.528 6.144 10.24 8.192 22.528 4.096 34.816-2.048 6.144-4.096 12.288-8.192 16.384-20.48-22.528-43.008-45.056-67.584-63.488 0-2.048 4.096-4.096 6.144-6.144 8.192-4.096 16.384-6.144 24.576-6.144zM716.8 90.112c12.288 0 24.576 4.096 32.768 14.336 8.192 8.192 14.336 20.48 14.336 32.768 0 6.144-2.048 12.288-4.096 18.432-24.576-16.384-53.248-32.768-81.92-43.008 2.048-2.048 4.096-6.144 6.144-8.192 10.24-8.192 20.48-14.336 32.768-14.336z m-116.736-36.864c4.096-2.048 8.192-2.048 12.288-2.048 8.192 0 16.384 2.048 22.528 6.144 10.24 6.144 18.432 16.384 22.528 28.672 2.048 6.144 2.048 12.288 2.048 18.432-28.672-10.24-59.392-16.384-90.112-20.48 0-4.096 2.048-6.144 4.096-10.24 6.144-10.24 16.384-16.384 26.624-20.48z m-143.36 22.528c4.096-12.288 10.24-22.528 22.528-28.672 6.144-4.096 14.336-6.144 22.528-6.144 4.096 0 8.192 0 12.288 2.048 18.432 4.096 32.768 20.48 34.816 38.912-10.24 0-20.48-2.048-30.72-2.048-20.48 0-40.96 2.048-61.44 4.096v-8.192z m-65.536-16.384c20.48 0 36.864 12.288 43.008 28.672-30.72 6.144-61.44 14.336-88.064 26.624 0-4.096-2.048-6.144-2.048-10.24 2.048-24.576 22.528-45.056 47.104-45.056z m-112.64 49.152c4.096-2.048 8.192-2.048 12.288-2.048 14.336 0 28.672 8.192 36.864 18.432-28.672 14.336-53.248 30.72-77.824 49.152-2.048-2.048-4.096-6.144-4.096-10.24-6.144-24.576 8.192-49.152 32.768-55.296zM182.272 184.32c6.144-4.096 14.336-6.144 22.528-6.144 10.24 0 20.48 4.096 28.672 10.24-22.528 20.48-45.056 43.008-63.488 67.584-2.048-2.048-4.096-6.144-6.144-8.192-12.288-22.528-4.096-51.2 18.432-63.488z m-75.776 98.304c8.192-8.192 20.48-14.336 32.768-14.336 6.144 0 12.288 2.048 18.432 4.096-16.384 24.576-32.768 53.248-43.008 81.92-2.048-2.048-6.144-4.096-8.192-6.144-18.432-18.432-18.432-49.152 0-65.536zM61.44 395.264c6.144-10.24 16.384-18.432 28.672-22.528 4.096-2.048 8.192-2.048 12.288-2.048h6.144c-10.24 28.672-16.384 59.392-20.48 90.112-4.096 0-6.144-2.048-10.24-4.096-10.24-6.144-18.432-16.384-22.528-28.672-2.048-8.192 0-22.528 6.144-32.768z m-16.384 122.88c4.096-18.432 20.48-32.768 38.912-34.816 0 10.24-2.048 20.48-2.048 30.72 0 20.48 2.048 40.96 4.096 61.44-4.096 0-6.144 0-10.24-2.048-22.528-6.144-36.864-30.72-30.72-55.296z m18.432 120.832c0-20.48 12.288-36.864 28.672-43.008 6.144 30.72 14.336 61.44 26.624 88.064-4.096 0-6.144 2.048-10.24 2.048-24.576 0-45.056-20.48-45.056-47.104z m69.632 143.36c-10.24-6.144-18.432-16.384-22.528-28.672-4.096-18.432 2.048-38.912 18.432-49.152 14.336 28.672 30.72 53.248 49.152 77.824-2.048 2.048-6.144 2.048-10.24 4.096-12.288 2.048-24.576 2.048-34.816-4.096z m53.248 67.584c-6.144-10.24-8.192-22.528-4.096-34.816 2.048-6.144 4.096-12.288 8.192-16.384 20.48 22.528 43.008 45.056 67.584 63.488-2.048 2.048-6.144 4.096-8.192 6.144-22.528 12.288-51.2 4.096-63.488-18.432z m131.072 88.064c-12.288 0-24.576-4.096-32.768-14.336-14.336-14.336-16.384-34.816-10.24-51.2 24.576 16.384 53.248 32.768 81.92 43.008-2.048 2.048-4.096 6.144-6.144 8.192-8.192 10.24-20.48 14.336-32.768 14.336z m116.736 36.864c-12.288 4.096-24.576 2.048-34.816-4.096-10.24-6.144-18.432-16.384-22.528-28.672-2.048-6.144-2.048-12.288-2.048-18.432 28.672 10.24 59.392 16.384 90.112 20.48 0 4.096-2.048 6.144-4.096 10.24-6.144 10.24-14.336 18.432-26.624 20.48z m143.36-20.48c-4.096 12.288-10.24 22.528-22.528 28.672-10.24 6.144-22.528 8.192-34.816 4.096-12.288-4.096-22.528-10.24-28.672-22.528-4.096-6.144-6.144-12.288-6.144-18.432 10.24 0 20.48 2.048 30.72 2.048 20.48 0 40.96-2.048 61.44-4.096 2.048 2.048 0 6.144 0 10.24z m65.536 14.336c-20.48 0-36.864-12.288-43.008-28.672 30.72-6.144 61.44-14.336 88.064-26.624 0 4.096 2.048 6.144 2.048 10.24-2.048 24.576-22.528 45.056-47.104 45.056z m112.64-47.104c-12.288 4.096-24.576 2.048-34.816-4.096-6.144-4.096-10.24-8.192-14.336-12.288 28.672-14.336 53.248-30.72 77.824-49.152 2.048 2.048 2.048 6.144 4.096 10.24 6.144 22.528-8.192 49.152-32.768 55.296z m98.304-75.776c-16.384 10.24-36.864 8.192-53.248-4.096 22.528-20.48 45.056-43.008 63.488-67.584 2.048 2.048 4.096 6.144 6.144 8.192 12.288 22.528 4.096 51.2-16.384 63.488z m73.728-98.304c-8.192 8.192-20.48 14.336-32.768 14.336-6.144 0-12.288-2.048-18.432-4.096 16.384-24.576 32.768-53.248 43.008-81.92 2.048 2.048 6.144 4.096 8.192 6.144 8.192 8.192 14.336 20.48 14.336 32.768s-6.144 24.576-14.336 32.768z m45.056-114.688c-6.144 10.24-16.384 18.432-28.672 22.528-6.144 2.048-12.288 2.048-18.432 2.048 10.24-28.672 16.384-59.392 20.48-90.112 4.096 0 6.144 2.048 10.24 4.096 10.24 6.144 18.432 16.384 22.528 28.672 2.048 10.24 2.048 22.528-6.144 32.768z m-24.576-88.064c0-10.24 2.048-20.48 2.048-30.72 0-20.48-2.048-40.96-4.096-61.44 4.096 0 6.144 0 10.24 2.048 24.576 6.144 38.912 32.768 32.768 57.344-6.144 18.432-22.528 30.72-40.96 32.768z" fill="#F57A9F" p-id="7443"></path><path d="M419.84 811.008l-36.864-63.488c-2.048-2.048-4.096-4.096-8.192-2.048l-69.632 24.576c-4.096 2.048-10.24-4.096-8.192-8.192l49.152-137.216c0-2.048 0-4.096-2.048-6.144-45.056-45.056-69.632-106.496-69.632-169.984 0-63.488 26.624-120.832 69.632-165.888 45.056-45.056 104.448-69.632 165.888-71.68 65.536 0 124.928 24.576 172.032 69.632 47.104 45.056 71.68 106.496 71.68 169.984 0 63.488-24.576 122.88-69.632 167.936-2.048 2.048-2.048 4.096-2.048 6.144l49.152 137.216c2.048 4.096-4.096 10.24-8.192 8.192l-69.632-24.576c-2.048-2.048-6.144 0-8.192 2.048L614.4 811.008c-2.048 4.096-10.24 4.096-12.288-2.048l-43.008-118.784c-2.048-2.048-4.096-4.096-6.144-4.096-24.576 4.096-47.104 4.096-71.68 0-2.048 0-6.144 2.048-6.144 4.096l-43.008 118.784c-2.048 6.144-10.24 6.144-12.288 2.048z m157.696-151.552l30.72 86.016c2.048 4.096 8.192 6.144 12.288 2.048l18.432-32.768c2.048-2.048 4.096-4.096 8.192-2.048l34.816 12.288c4.096 2.048 10.24-4.096 8.192-8.192L655.36 616.448c0-2.048 0-6.144 2.048-6.144l4.096-4.096c45.056-40.96 69.632-96.256 69.632-157.696 0-57.344-22.528-110.592-63.488-151.552s-94.208-61.44-151.552-61.44c-114.688 2.048-208.896 96.256-208.896 208.896 0 59.392 24.576 118.784 69.632 159.744l4.096 4.096c2.048 2.048 2.048 4.096 2.048 6.144l-38.912 102.4c-2.048 4.096 4.096 10.24 8.192 8.192l34.816-12.288c2.048-2.048 6.144 0 8.192 2.048l18.432 32.768c2.048 4.096 10.24 4.096 12.288-2.048l30.72-86.016c2.048-2.048 4.096-4.096 8.192-4.096l51.2 12.288h2.048l51.2-12.288c4.096 0 8.192 2.048 8.192 4.096z" fill="#FFFFFF" p-id="7444"></path><path d="M606.208 587.776l-86.016-45.056h-6.144l-86.016 45.056c-4.096 2.048-10.24-2.048-10.24-6.144l16.384-96.256c0-2.048 0-4.096-2.048-6.144l-69.632-67.584c-4.096-4.096-2.048-10.24 4.096-10.24l96.256-14.336c2.048 0 4.096-2.048 4.096-4.096l43.008-88.064c2.048-4.096 8.192-4.096 12.288 0l43.008 88.064c0 2.048 2.048 4.096 4.096 4.096l96.256 14.336c6.144 0 8.192 8.192 4.096 10.24l-69.632 67.584c-2.048 2.048-2.048 4.096-2.048 6.144l16.384 96.256c2.048 4.096-4.096 8.192-8.192 6.144z m-182.272-155.648l38.912 38.912c2.048 2.048 2.048 4.096 2.048 6.144l-10.24 55.296c0 6.144 4.096 10.24 10.24 6.144l49.152-26.624h6.144l49.152 26.624c4.096 2.048 10.24-2.048 10.24-6.144l-10.24-55.296c0-2.048 0-4.096 2.048-6.144l38.912-38.912c4.096-4.096 2.048-10.24-4.096-10.24l-53.248-10.24c-2.048 0-4.096-2.048-4.096-4.096l-24.576-49.152c-2.048-4.096-8.192-4.096-12.288 0L487.424 409.6c0 2.048-2.048 4.096-4.096 4.096l-55.296 8.192c-6.144 0-8.192 6.144-4.096 10.24z" fill="#FFFFFF" p-id="7445"></path></svg>