<?xml version="1.0" standalone="no"?><!DOCTYPE svg PUBLIC "-//W3C//DTD SVG 1.1//EN" "http://www.w3.org/Graphics/SVG/1.1/DTD/svg11.dtd"><svg t="1585727923269" class="icon" viewBox="0 0 1024 1024" version="1.1" xmlns="http://www.w3.org/2000/svg" p-id="4849" xmlns:xlink="http://www.w3.org/1999/xlink" width="64" height="64"><defs><style type="text/css"></style></defs><path d="M954.446769 63.172923c-65.457231 7.561846-133.12 7.246769-203.303384-1.575385C680.566154 52.460308 607.783385 34.737231 532.48 7.404308L512 0l-20.637538 7.483077C416.216615 34.816 343.433846 52.539077 272.777846 61.518769c-70.104615 8.900923-137.767385 9.216-203.224615 1.654154L0 55.217231l0.787692 72.231384c3.859692 306.884923 57.501538 464.265846 143.675077 601.009231 90.584615 143.36 214.094769 258.835692 353.516308 292.233846L512 1024l14.020923-3.387077c139.264-33.319385 262.852923-148.716308 353.516308-292.155077 86.173538-136.664615 139.815385-294.124308 143.596307-601.009231L1024 55.217231l-69.553231 7.955692z m-472.615384 629.366154l-241.033847-230.084923 59.234462-52.460308L480.728615 582.104615l295.305847-291.603692 60.179692 51.436308-354.382769 350.601846z" fill="#d81e06" p-id="4850"></path></svg>